<?xml version="1.0" standalone="no"?>
<!DOCTYPE svg PUBLIC "-//W3C//DTD SVG 1.1//EN" "http://www.w3.org/Graphics/SVG/1.1/DTD/svg11.dtd" >
<svg xmlns="http://www.w3.org/2000/svg" xmlns:xlink="http://www.w3.org/1999/xlink" version="1.1">
<metadata></metadata>
<defs>
<font id="porterbold_demo" horiz-adv-x="1705" >
<font-face units-per-em="2048" ascent="1536" descent="-512" />
<missing-glyph horiz-adv-x="491" />
<glyph horiz-adv-x="0" />
<glyph horiz-adv-x="682" />
<glyph horiz-adv-x="0" />
<glyph horiz-adv-x="0" />
<glyph unicode=" "  horiz-adv-x="491" />
<glyph unicode="&#x09;" horiz-adv-x="491" />
<glyph unicode="&#xa0;" horiz-adv-x="491" />
<glyph unicode="!" />
<glyph unicode="&#x22;" horiz-adv-x="727" d="M113 969l37 465h233l-92 -465h-178zM397 969l37 465h232l-91 -465h-178z" />
<glyph unicode="#" />
<glyph unicode="$" horiz-adv-x="911" d="M332 -162v1761h229v-1761h-229z" />
<glyph unicode="%" />
<glyph unicode="&#x26;" />
<glyph unicode="'" horiz-adv-x="432" d="M111 969l36 465h234l-92 -465h-178z" />
<glyph unicode="(" horiz-adv-x="1122" d="M297 717q0 254 114.5 489.5t321.5 407.5l182 -217q-162 -129 -248.5 -309.5t-86.5 -370.5q0 -193 87 -372t248 -308l-182 -217q-100 82 -181 183t-137.5 216t-87 241t-30.5 257z" />
<glyph unicode=")" horiz-adv-x="1122" d="M184 37q160 129 247 308t87 372q0 190 -87 370.5t-247 309.5l183 217q207 -172 321.5 -407.5t114.5 -489.5q0 -131 -31 -257t-87 -241t-137 -216t-181 -183z" />
<glyph unicode="*" horiz-adv-x="1746" d="M631 1069l69 211l211 -70v224h224v-222l208 68l68 -211l-209 -70l131 -180l-182 -127l-129 178l-129 -178l-182 127l131 182z" />
<glyph unicode="+" horiz-adv-x="1568" d="M299 573v287h326v326h286v-326h324v-287h-324v-325h-286v325h-326z" />
<glyph unicode="," horiz-adv-x="827" d="M182 -166l166 477h289l-248 -477h-207z" />
<glyph unicode="-" horiz-adv-x="1568" d="M299 573v287h936v-287h-936z" />
<glyph unicode="." horiz-adv-x="751" d="M193 160q0 74 51 125t123 51q76 0 126 -51t50 -125q0 -72 -50.5 -123t-125.5 -51q-37 0 -69 14t-55.5 37.5t-36.5 55.5t-13 67z" />
<glyph unicode="/" horiz-adv-x="1486" d="M223 0l695 1434h315l-694 -1434h-316z" />
<glyph unicode="0" />
<glyph unicode="1" />
<glyph unicode="2" />
<glyph unicode="3" horiz-adv-x="1550" d="M203 0v1434h497q160 0 288 -52.5t218 -147.5t139.5 -227.5t49.5 -291.5q0 -152 -49.5 -282t-139.5 -226t-218 -151.5t-288 -55.5h-497zM485 285h215q88 0 163 32.5t130.5 91t86 137.5t30.5 169t-30.5 169t-86 137t-130.5 92t-163 34h-215v-862z" />
<glyph unicode="4" horiz-adv-x="1265" d="M199 0v1434h921v-285h-637v-289h465v-287h-465v-288h637v-285h-921z" />
<glyph unicode="5" horiz-adv-x="2056" d="M207 0v1448h158l641 -637l643 637h155v-1448h-282v926l-516 -512l-514 512v-926h-285z" />
<glyph unicode="6" horiz-adv-x="1708" d="M104 715q0 143 55.5 276t153 234.5t231.5 162t292 60.5q141 0 273 -54.5t233.5 -151.5t163 -232.5t61.5 -294.5q0 -141 -54.5 -273.5t-151.5 -234t-231 -161.5t-294 -60q-137 0 -268.5 51t-235 146.5t-166 230.5t-62.5 301zM389 715q0 -92 36 -173t96.5 -141.5t141 -95.5 t173.5 -35q92 0 173 35t141 95.5t95 141.5t35 173t-36 174t-96.5 143.5t-141 96t-170.5 34.5q-92 0 -173 -34.5t-142.5 -96t-96.5 -143.5t-35 -174z" />
<glyph unicode="7" />
<glyph unicode="8" />
<glyph unicode="9" />
<glyph unicode=":" horiz-adv-x="755" d="M193 754q0 74 51 125t123 51q76 0 126 -51t50 -125q0 -72 -50.5 -123t-125.5 -51q-72 0 -123 51t-51 123zM197 160q0 74 51 125t123 51q76 0 126 -51t50 -125q0 -72 -50.5 -123t-125.5 -51q-37 0 -69 14t-55.5 37.5t-36.5 55.5t-13 67z" />
<glyph unicode=";" horiz-adv-x="872" d="M182 -166l166 477h289l-248 -477h-207zM311 754q0 74 51.5 125t122.5 51q74 0 125.5 -51t51.5 -125q0 -72 -51.5 -123t-125.5 -51q-72 0 -123 51t-51 123z" />
<glyph unicode="&#x3c;" horiz-adv-x="1767" d="M301 573v285l1028 221v-291l-426 -71l426 -74v-291z" />
<glyph unicode="=" horiz-adv-x="1568" d="M299 381v287h936v-287h-936zM299 829v287h936v-287h-936z" />
<glyph unicode="&#x3e;" horiz-adv-x="1767" d="M401 352v291l424 74l-424 71v291l1029 -221v-285z" />
<glyph unicode="?" />
<glyph unicode="@" horiz-adv-x="1835" d="M205 717q0 168 61.5 303t162.5 230.5t231.5 146.5t265.5 51q195 0 356.5 -83t255.5 -237q45 -78 68.5 -164.5t23.5 -183.5q0 -86 -20.5 -165.5t-61.5 -142t-102.5 -99.5t-140.5 -37q-55 0 -96.5 21.5t-63.5 54.5q-43 -47 -106.5 -68.5t-123.5 -21.5q-82 0 -152.5 31.5 t-123.5 85t-84 126t-31 152.5t31 152.5t84 126t124 85t152 31.5q55 0 109.5 -16.5t97.5 -53.5v31q0 20 19 21h131q18 0 18 -21v-514q0 -33 9.5 -43t17.5 -10q68 0 102.5 78t34.5 200q0 119 -44 211t-116.5 155.5t-168 95.5t-199.5 32q-121 0 -221.5 -46t-173 -124 t-112.5 -179.5t-40 -211.5q0 -129 46 -232.5t123 -177.5t175 -112.5t203 -38.5q92 0 181 31.5t165 84.5q4 4 10 4q12 0 18 -10l62 -106q4 -8 4 -15q0 -10 -8 -16q-111 -78 -211 -110.5t-221 -32.5q-168 0 -301 62.5t-226.5 165.5t-143.5 234.5t-50 268.5zM705 709 q0 -43 16 -82t45 -68t67.5 -45t81.5 -16q39 0 77 12t68 33.5t47 52.5t17 68v108q0 35 -17 65.5t-47 52t-68 34t-77 12.5q-43 0 -81.5 -16.5t-67.5 -44t-45 -66.5t-16 -82v-18z" />
<glyph unicode="A" horiz-adv-x="1486" d="M27 0l637 1448h120l646 -1448h-314l-117 262h-546q-27 -61 -59 -132t-56 -130h-311zM578 547h294l-147 332z" />
<glyph unicode="B" horiz-adv-x="1398" d="M201 0v1434h575q92 0 172 -33t139.5 -87t93 -126t33.5 -148q0 -70 -31.5 -150.5t-119.5 -141.5q53 -25 92 -62t63.5 -79t37 -87t12.5 -88q0 -80 -23.5 -156.5t-80 -138t-149.5 -99.5t-233 -38h-581zM485 285h260q117 0 168.5 44t51.5 103q0 31 -10.5 59.5t-35 50 t-67.5 35t-107 13.5h-260v-305zM485 874h258q76 0 122 36t46 96q0 59 -46 101t-122 42h-258v-275z" />
<glyph unicode="C" horiz-adv-x="1490" d="M102 715q0 160 60.5 295t162 232t233.5 151.5t273 54.5q143 0 283.5 -60.5t251.5 -173.5l-199 -200q-72 72 -158.5 110.5t-177.5 38.5q-92 0 -172.5 -35.5t-141 -96t-95.5 -142.5t-35 -174t35 -173t95.5 -141.5t141 -95.5t172.5 -35q102 0 189.5 44t167.5 124l201 -198 q-121 -121 -261.5 -187.5t-296.5 -66.5q-166 0 -301 62.5t-230 164.5t-146.5 233.5t-51.5 268.5z" />
<glyph unicode="D" horiz-adv-x="1550" d="M203 0v1434h497q160 0 288 -52.5t218 -147.5t139.5 -227.5t49.5 -291.5q0 -152 -49.5 -282t-139.5 -226t-218 -151.5t-288 -55.5h-497zM485 285h215q88 0 163 32.5t130.5 91t86 137.5t30.5 169t-30.5 169t-86 137t-130.5 92t-163 34h-215v-862z" />
<glyph unicode="E" horiz-adv-x="1265" d="M199 0v1434h921v-285h-637v-289h465v-287h-465v-288h637v-285h-921z" />
<glyph unicode="F" horiz-adv-x="1224" d="M199 0v1434h921v-285h-637v-289h465v-287h-465v-573h-284z" />
<glyph unicode="G" horiz-adv-x="1548" d="M102 715q0 166 62.5 302t164 231t232.5 147.5t270 52.5q145 0 282.5 -59.5t250.5 -171.5l-195 -205q-76 72 -162.5 111.5t-175.5 39.5q-92 0 -172.5 -34.5t-141 -96t-95.5 -143.5t-35 -174t35 -173t95.5 -141.5t141 -95.5t172.5 -35q61 0 123 17.5t115 48.5v190h-278v285 h561v-610q-117 -104 -243 -159.5t-278 -55.5q-166 0 -301 62.5t-230 163.5t-146.5 232t-51.5 271z" />
<glyph unicode="H" horiz-adv-x="1574" d="M203 0v1434h282v-574h570v574h284v-1434h-284v573h-570v-573h-282z" />
<glyph unicode="I" horiz-adv-x="681" d="M193 0v1434h282v-1434h-282z" />
<glyph unicode="J" horiz-adv-x="888" d="M-59 158l196 207l58 -54q23 -18 42 -29.5t48 -11.5q53 0 89 37t36 88v1039h282v-1039q0 -80 -30.5 -154.5t-86 -131t-130 -90t-160.5 -33.5q-78 0 -156 32.5t-135 94.5l4 -2z" />
<glyph unicode="K" horiz-adv-x="1433" d="M203 0v1434h282v-543l488 543h383l-598 -670l639 -764h-371l-459 553q-18 -23 -38.5 -46.5t-43.5 -45.5v-461h-282z" />
<glyph unicode="L" horiz-adv-x="1173" d="M199 0v1434h284v-1149h578v-285h-862z" />
<glyph unicode="M" horiz-adv-x="2056" d="M207 0v1448h158l641 -637l643 637h155v-1448h-282v926l-516 -512l-514 512v-926h-285z" />
<glyph unicode="N" horiz-adv-x="1622" d="M203 0v1448h125l774 -860v846h282v-1448h-127l-772 858v-844h-282z" />
<glyph unicode="O" horiz-adv-x="1708" d="M104 715q0 143 55.5 276t153 234.5t231.5 162t292 60.5q141 0 273 -54.5t233.5 -151.5t163 -232.5t61.5 -294.5q0 -141 -54.5 -273.5t-151.5 -234t-231 -161.5t-294 -60q-137 0 -268.5 51t-235 146.5t-166 230.5t-62.5 301zM389 715q0 -92 36 -173t96.5 -141.5t141 -95.5 t173.5 -35q92 0 173 35t141 95.5t95 141.5t35 173t-36 174t-96.5 143.5t-141 96t-170.5 34.5q-92 0 -173 -34.5t-142.5 -96t-96.5 -143.5t-35 -174z" />
<glyph unicode="P" horiz-adv-x="1331" d="M201 0v1434h579q90 0 170 -35t140.5 -95.5t96.5 -140.5t36 -172t-35 -174t-95.5 -141.5t-141.5 -94t-171 -34.5h-295v-547h-284zM485 829h242q109 0 160 48.5t51 113.5q0 66 -51 112t-160 46h-242v-320z" />
<glyph unicode="Q" horiz-adv-x="1734" d="M106 715q0 143 55.5 276t153 234.5t231.5 162t292 60.5q141 0 272 -54.5t232.5 -151.5t163 -232.5t61.5 -294.5q0 -121 -42 -235.5t-114 -211.5l242 -268h-387l-70 78q-78 -41 -169 -66.5t-189 -25.5q-137 0 -268.5 51t-235 146.5t-166 230.5t-62.5 301zM391 715 q0 -92 35 -173t96.5 -141.5t142.5 -95.5t173 -35q84 0 159 29q-68 78 -143.5 160t-140.5 155l215 193l291 -322q29 51 46 108.5t17 121.5q0 92 -36 174t-96 143.5t-141 96t-171 34.5q-92 0 -174 -34.5t-142.5 -96t-95.5 -143.5t-35 -174z" />
<glyph unicode="R" horiz-adv-x="1478" d="M203 0v1434h579q90 0 170 -35t140.5 -95.5t96.5 -140.5t36 -172q0 -135 -70 -242.5t-182 -158.5l422 -590h-348l-390 547h-172v-547h-282zM485 829h244q109 0 160 48.5t51 113.5q0 66 -51 112t-160 46h-244v-320z" />
<glyph unicode="S" horiz-adv-x="1189" d="M66 223l213 197q14 -18 45.5 -44t72.5 -49.5t86 -40t86 -16.5q35 0 70 8.5t63.5 26t47 46t18.5 71.5q0 16 -11.5 35.5t-39 42t-76.5 48t-123 54.5q-86 33 -159.5 71t-128 89t-84 116.5t-29.5 151.5q0 88 32.5 165t93 133t145.5 88t187 32q55 0 118 -14.5t122 -37 t111.5 -52t87.5 -60.5l-176 -221q-39 27 -80 49q-35 18 -80 34.5t-92 16.5q-86 0 -134.5 -33.5t-48.5 -97.5q0 -29 17.5 -52.5t47.5 -42.5t68.5 -35.5t81.5 -31.5q123 -47 207 -95t135.5 -102.5t73 -116.5t21.5 -136q0 -90 -37 -170t-101.5 -138.5t-154 -92t-193.5 -33.5 q-94 0 -182 26.5t-166 75.5h2q-55 35 -98 76t-59 59z" />
<glyph unicode="T" horiz-adv-x="1284" d="M90 1149v285h1075v-285h-393v-1149h-285v1149h-397z" />
<glyph unicode="U" horiz-adv-x="1507" d="M182 545v889h283v-852q0 -72 22.5 -130.5t60.5 -98.5t87 -61.5t102 -21.5t102.5 21.5t87.5 61.5t60.5 98.5t22.5 130.5v852h284v-889q0 -123 -41 -225.5t-114.5 -176t-176 -115.5t-225.5 -42t-225 42t-175 115.5t-114 176t-41 225.5z" />
<glyph unicode="V" horiz-adv-x="1486" d="M27 1434h311l391 -877q96 219 193.5 439.5t195.5 437.5h312l-639 -1448h-119z" />
<glyph unicode="W" horiz-adv-x="2097" d="M39 1434h297l264 -832l367 846h116l369 -846q66 205 132.5 418t131.5 418h297l-457 -1452h-147l-383 880l-385 -880h-147z" />
<glyph unicode="X" horiz-adv-x="1533" d="M45 0l533 737q-57 80 -123 170t-131.5 181.5t-130 179.5t-119.5 166h350l328 -455l327 455h351l-504 -697l530 -737h-348l-356 494q-88 -121 -179.5 -248t-177.5 -246h-350z" />
<glyph unicode="Y" horiz-adv-x="1413" d="M14 1434h351l327 -455l326 455h352l-536 -742v-692h-285v692q-61 86 -130 180.5t-137.5 190.5t-137 190.5t-130.5 180.5z" />
<glyph unicode="Z" horiz-adv-x="1302" d="M100 0v94l617 1055h-578v285h1022v-86l-620 -1063h633v-285h-1074z" />
<glyph unicode="[" horiz-adv-x="827" d="M274 -162v1761h422v-229h-192v-1302h192v-230h-422z" />
<glyph unicode="\" horiz-adv-x="1486" d="M223 1434h316l694 -1434h-315z" />
<glyph unicode="]" horiz-adv-x="827" d="M113 68h194v1302h-194v229h424v-1761h-424v230z" />
<glyph unicode="^" horiz-adv-x="1746" d="M600 1049l320 385h204l320 -385l-217 -179l-205 242l-205 -242z" />
<glyph unicode="_" horiz-adv-x="1746" d="M410 0v287h1079v-287h-1079z" />
<glyph unicode="`" horiz-adv-x="765" d="M158 1792h297l229 -336h-242z" />
<glyph unicode="a" horiz-adv-x="1486" d="M27 0l637 1448h120l646 -1448h-314l-117 262h-546q-27 -61 -59 -132t-56 -130h-311zM578 547h294l-147 332z" />
<glyph unicode="b" horiz-adv-x="1398" d="M201 0v1434h575q92 0 172 -33t139.5 -87t93 -126t33.5 -148q0 -70 -31.5 -150.5t-119.5 -141.5q53 -25 92 -62t63.5 -79t37 -87t12.5 -88q0 -80 -23.5 -156.5t-80 -138t-149.5 -99.5t-233 -38h-581zM485 285h260q117 0 168.5 44t51.5 103q0 31 -10.5 59.5t-35 50 t-67.5 35t-107 13.5h-260v-305zM485 874h258q76 0 122 36t46 96q0 59 -46 101t-122 42h-258v-275z" />
<glyph unicode="c" horiz-adv-x="1490" d="M102 715q0 160 60.5 295t162 232t233.5 151.5t273 54.5q143 0 283.5 -60.5t251.5 -173.5l-199 -200q-72 72 -158.5 110.5t-177.5 38.5q-92 0 -172.5 -35.5t-141 -96t-95.5 -142.5t-35 -174t35 -173t95.5 -141.5t141 -95.5t172.5 -35q102 0 189.5 44t167.5 124l201 -198 q-121 -121 -261.5 -187.5t-296.5 -66.5q-166 0 -301 62.5t-230 164.5t-146.5 233.5t-51.5 268.5z" />
<glyph unicode="d" horiz-adv-x="1550" d="M203 0v1434h497q160 0 288 -52.5t218 -147.5t139.5 -227.5t49.5 -291.5q0 -152 -49.5 -282t-139.5 -226t-218 -151.5t-288 -55.5h-497zM485 285h215q88 0 163 32.5t130.5 91t86 137.5t30.5 169t-30.5 169t-86 137t-130.5 92t-163 34h-215v-862z" />
<glyph unicode="e" horiz-adv-x="1265" d="M199 0v1434h921v-285h-637v-289h465v-287h-465v-288h637v-285h-921z" />
<glyph unicode="f" horiz-adv-x="1224" d="M199 0v1434h921v-285h-637v-289h465v-287h-465v-573h-284z" />
<glyph unicode="g" horiz-adv-x="1548" d="M102 715q0 166 62.5 302t164 231t232.5 147.5t270 52.5q145 0 282.5 -59.5t250.5 -171.5l-195 -205q-76 72 -162.5 111.5t-175.5 39.5q-92 0 -172.5 -34.5t-141 -96t-95.5 -143.5t-35 -174t35 -173t95.5 -141.5t141 -95.5t172.5 -35q61 0 123 17.5t115 48.5v190h-278v285 h561v-610q-117 -104 -243 -159.5t-278 -55.5q-166 0 -301 62.5t-230 163.5t-146.5 232t-51.5 271z" />
<glyph unicode="h" horiz-adv-x="1574" d="M203 0v1434h282v-574h570v574h284v-1434h-284v573h-570v-573h-282z" />
<glyph unicode="i" horiz-adv-x="681" d="M193 0v1434h282v-1434h-282z" />
<glyph unicode="j" horiz-adv-x="888" d="M-59 158l196 207l58 -54q23 -18 42 -29.5t48 -11.5q53 0 89 37t36 88v1039h282v-1039q0 -80 -30.5 -154.5t-86 -131t-130 -90t-160.5 -33.5q-78 0 -156 32.5t-135 94.5l4 -2z" />
<glyph unicode="k" horiz-adv-x="1433" d="M203 0v1434h282v-543l488 543h383l-598 -670l639 -764h-371l-459 553q-18 -23 -38.5 -46.5t-43.5 -45.5v-461h-282z" />
<glyph unicode="l" horiz-adv-x="1173" d="M199 0v1434h284v-1149h578v-285h-862z" />
<glyph unicode="m" horiz-adv-x="2056" d="M207 0v1448h158l641 -637l643 637h155v-1448h-282v926l-516 -512l-514 512v-926h-285z" />
<glyph unicode="n" horiz-adv-x="1622" d="M203 0v1448h125l774 -860v846h282v-1448h-127l-772 858v-844h-282z" />
<glyph unicode="o" horiz-adv-x="1708" d="M111 702q0 141 54 272.5t150.5 231t227.5 158.5t286 59q137 0 267.5 -53t229.5 -149.5t159.5 -228.5t60.5 -290q0 -139 -53 -268t-148.5 -229.5t-227.5 -159.5t-288 -59q-135 0 -264 51t-230.5 144t-162.5 225.5t-61 295.5zM389 702q0 -90 35 -169.5t94.5 -139t140 -93.5 t170.5 -34t169 35t138.5 94.5t94.5 138t35 168.5t-35 170t-95.5 140.5t-139.5 95.5t-167 35q-92 0 -171.5 -35t-139 -95.5t-94.5 -140t-35 -170.5z" />
<glyph unicode="p" horiz-adv-x="1331" d="M201 0v1434h579q90 0 170 -35t140.5 -95.5t96.5 -140.5t36 -172t-35 -174t-95.5 -141.5t-141.5 -94t-171 -34.5h-295v-547h-284zM485 829h242q109 0 160 48.5t51 113.5q0 66 -51 112t-160 46h-242v-320z" />
<glyph unicode="q" horiz-adv-x="1734" d="M106 715q0 143 55.5 276t153 234.5t231.5 162t292 60.5q141 0 272 -54.5t232.5 -151.5t163 -232.5t61.5 -294.5q0 -121 -42 -235.5t-114 -211.5l242 -268h-387l-70 78q-78 -41 -169 -66.5t-189 -25.5q-137 0 -268.5 51t-235 146.5t-166 230.5t-62.5 301zM391 715 q0 -92 35 -173t96.5 -141.5t142.5 -95.5t173 -35q84 0 159 29q-68 78 -143.5 160t-140.5 155l215 193l291 -322q29 51 46 108.5t17 121.5q0 92 -36 174t-96 143.5t-141 96t-171 34.5q-92 0 -174 -34.5t-142.5 -96t-95.5 -143.5t-35 -174z" />
<glyph unicode="r" horiz-adv-x="1478" d="M203 0v1434h579q90 0 170 -35t140.5 -95.5t96.5 -140.5t36 -172q0 -135 -70 -242.5t-182 -158.5l422 -590h-348l-390 547h-172v-547h-282zM485 829h244q109 0 160 48.5t51 113.5q0 66 -51 112t-160 46h-244v-320z" />
<glyph unicode="s" horiz-adv-x="1189" d="M66 223l213 197q14 -18 45.5 -44t72.5 -49.5t86 -40t86 -16.5q35 0 70 8.5t63.5 26t47 46t18.5 71.5q0 16 -11.5 35.5t-39 42t-76.5 48t-123 54.5q-86 33 -159.5 71t-128 89t-84 116.5t-29.5 151.5q0 88 32.5 165t93 133t145.5 88t187 32q55 0 118 -14.5t122 -37 t111.5 -52t87.5 -60.5l-176 -221q-39 27 -80 49q-35 18 -80 34.5t-92 16.5q-86 0 -134.5 -33.5t-48.5 -97.5q0 -29 17.5 -52.5t47.5 -42.5t68.5 -35.5t81.5 -31.5q123 -47 207 -95t135.5 -102.5t73 -116.5t21.5 -136q0 -90 -37 -170t-101.5 -138.5t-154 -92t-193.5 -33.5 q-94 0 -182 26.5t-166 75.5h2q-55 35 -98 76t-59 59z" />
<glyph unicode="t" horiz-adv-x="1284" d="M90 1149v285h1075v-285h-393v-1149h-285v1149h-397z" />
<glyph unicode="u" horiz-adv-x="1507" d="M182 545v889h283v-852q0 -72 22.5 -130.5t60.5 -98.5t87 -61.5t102 -21.5t102.5 21.5t87.5 61.5t60.5 98.5t22.5 130.5v852h284v-889q0 -123 -41 -225.5t-114.5 -176t-176 -115.5t-225.5 -42t-225 42t-175 115.5t-114 176t-41 225.5z" />
<glyph unicode="v" horiz-adv-x="1486" d="M27 1434h311l391 -877q96 219 193.5 439.5t195.5 437.5h312l-639 -1448h-119z" />
<glyph unicode="w" horiz-adv-x="2097" d="M39 1434h297l264 -832l367 846h116l369 -846q66 205 132.5 418t131.5 418h297l-457 -1452h-147l-383 880l-385 -880h-147z" />
<glyph unicode="x" horiz-adv-x="1533" d="M45 0l533 737q-57 80 -123 170t-131.5 181.5t-130 179.5t-119.5 166h350l328 -455l327 455h351l-504 -697l530 -737h-348l-356 494q-88 -121 -179.5 -248t-177.5 -246h-350z" />
<glyph unicode="y" horiz-adv-x="1413" d="M14 1434h351l327 -455l326 455h352l-536 -742v-692h-285v692q-61 86 -130 180.5t-137.5 190.5t-137 190.5t-130.5 180.5z" />
<glyph unicode="z" horiz-adv-x="1302" d="M100 0v94l617 1055h-578v285h1022v-86l-620 -1063h633v-285h-1074z" />
<glyph unicode="{" horiz-adv-x="1003" d="M201 717l184 192v529q0 55 20.5 88t48 49t57.5 20t48 4h248v-229h-195v-555l-94 -98l94 -99v-555h195v-229h-242q-20 0 -51 4t-59.5 20.5t-49 49.5t-20.5 88v528q-41 45 -92 98.5t-92 94.5z" />
<glyph unicode="|" horiz-adv-x="911" d="M332 -162v1761h229v-1761h-229z" />
<glyph unicode="}" horiz-adv-x="1003" d="M176 63h193v555l94 99l-94 98v555h-193v229h246q18 0 48 -4t57.5 -20t48 -49t20.5 -88v-529q41 -45 92 -98t92 -94l-184 -193v-528q0 -55 -20.5 -88t-48 -49.5t-59.5 -20.5t-52 -4h-240v229z" />
<glyph unicode="~" horiz-adv-x="907" d="M94 580q10 156 58.5 226.5t134.5 70.5q43 0 81 -17.5t78 -40.5q29 -18 61 -32.5t62 -18.5q6 10 11 39v2v-2v2q0 8 1 24.5t1 20.5h213q-6 -150 -56.5 -223.5t-138.5 -73.5q-47 0 -91 20.5t-85 45.5q-29 18 -55.5 31.5t-49.5 17.5q-6 -4 -16 -92h-209z" />
<glyph unicode="&#xa1;" />
<glyph unicode="&#xa2;" />
<glyph unicode="&#xa3;" />
<glyph unicode="&#xa5;" />
<glyph unicode="&#xa7;" />
<glyph unicode="&#xa8;" />
<glyph unicode="&#xa9;" />
<glyph unicode="&#xaa;" />
<glyph unicode="&#xab;" />
<glyph unicode="&#xac;" />
<glyph unicode="&#xad;" horiz-adv-x="1568" d="M299 573v287h936v-287h-936z" />
<glyph unicode="&#xae;" />
<glyph unicode="&#xaf;" />
<glyph unicode="&#xb0;" />
<glyph unicode="&#xb1;" />
<glyph unicode="&#xb4;" />
<glyph unicode="&#xb5;" />
<glyph unicode="&#xb6;" />
<glyph unicode="&#xb7;" />
<glyph unicode="&#xb8;" />
<glyph unicode="&#xba;" />
<glyph unicode="&#xbb;" />
<glyph unicode="&#xbf;" />
<glyph unicode="&#xc0;" />
<glyph unicode="&#xc1;" />
<glyph unicode="&#xc2;" />
<glyph unicode="&#xc3;" />
<glyph unicode="&#xc4;" />
<glyph unicode="&#xc5;" />
<glyph unicode="&#xc6;" />
<glyph unicode="&#xc7;" />
<glyph unicode="&#xc8;" />
<glyph unicode="&#xc9;" />
<glyph unicode="&#xca;" />
<glyph unicode="&#xcb;" />
<glyph unicode="&#xcc;" />
<glyph unicode="&#xcd;" />
<glyph unicode="&#xce;" />
<glyph unicode="&#xcf;" />
<glyph unicode="&#xd1;" horiz-adv-x="1622" />
<glyph unicode="&#xd2;" />
<glyph unicode="&#xd3;" />
<glyph unicode="&#xd4;" />
<glyph unicode="&#xd5;" />
<glyph unicode="&#xd6;" />
<glyph unicode="&#xd8;" />
<glyph unicode="&#xd9;" />
<glyph unicode="&#xda;" />
<glyph unicode="&#xdb;" />
<glyph unicode="&#xdc;" />
<glyph unicode="&#xdf;" />
<glyph unicode="&#xe0;" />
<glyph unicode="&#xe1;" />
<glyph unicode="&#xe2;" />
<glyph unicode="&#xe3;" />
<glyph unicode="&#xe4;" />
<glyph unicode="&#xe5;" />
<glyph unicode="&#xe6;" />
<glyph unicode="&#xe7;" />
<glyph unicode="&#xe8;" />
<glyph unicode="&#xe9;" />
<glyph unicode="&#xea;" />
<glyph unicode="&#xeb;" />
<glyph unicode="&#xec;" />
<glyph unicode="&#xed;" />
<glyph unicode="&#xee;" />
<glyph unicode="&#xef;" />
<glyph unicode="&#xf1;" />
<glyph unicode="&#xf2;" />
<glyph unicode="&#xf3;" />
<glyph unicode="&#xf4;" />
<glyph unicode="&#xf5;" />
<glyph unicode="&#xf6;" />
<glyph unicode="&#xf7;" />
<glyph unicode="&#xf8;" />
<glyph unicode="&#xf9;" />
<glyph unicode="&#xfa;" />
<glyph unicode="&#xfb;" />
<glyph unicode="&#xfc;" />
<glyph unicode="&#xff;" />
<glyph unicode="&#x152;" />
<glyph unicode="&#x153;" />
<glyph unicode="&#x178;" />
<glyph unicode="&#x2c6;" />
<glyph unicode="&#x2dc;" />
<glyph unicode="&#x2000;" horiz-adv-x="896" />
<glyph unicode="&#x2001;" horiz-adv-x="1792" />
<glyph unicode="&#x2002;" horiz-adv-x="896" />
<glyph unicode="&#x2003;" horiz-adv-x="1792" />
<glyph unicode="&#x2004;" horiz-adv-x="597" />
<glyph unicode="&#x2005;" horiz-adv-x="448" />
<glyph unicode="&#x2006;" horiz-adv-x="298" />
<glyph unicode="&#x2007;" horiz-adv-x="298" />
<glyph unicode="&#x2008;" horiz-adv-x="224" />
<glyph unicode="&#x2009;" horiz-adv-x="358" />
<glyph unicode="&#x200a;" horiz-adv-x="99" />
<glyph unicode="&#x2010;" horiz-adv-x="1568" d="M299 573v287h936v-287h-936z" />
<glyph unicode="&#x2011;" horiz-adv-x="1568" d="M299 573v287h936v-287h-936z" />
<glyph unicode="&#x2012;" horiz-adv-x="1568" d="M299 573v287h936v-287h-936z" />
<glyph unicode="&#x2013;" />
<glyph unicode="&#x2014;" />
<glyph unicode="&#x2018;" />
<glyph unicode="&#x2019;" />
<glyph unicode="&#x201a;" />
<glyph unicode="&#x201c;" />
<glyph unicode="&#x201d;" />
<glyph unicode="&#x201e;" />
<glyph unicode="&#x2022;" />
<glyph unicode="&#x2026;" />
<glyph unicode="&#x202f;" horiz-adv-x="358" />
<glyph unicode="&#x2039;" />
<glyph unicode="&#x203a;" />
<glyph unicode="&#x205f;" horiz-adv-x="448" />
<glyph unicode="&#x20ac;" />
<glyph unicode="&#x2122;" />
<glyph unicode="&#x25fc;" horiz-adv-x="1433" d="M0 0v1434h1434v-1434h-1434z" />
<glyph unicode="&#xfb01;" />
<glyph unicode="&#xfb02;" />
</font>
</defs>
</svg>
